     /* XPM */
    static char * left_active_xpm[] = {
    "4 24 2 1",
    ".      c #CECECE",
    "x      c #7C7C7C",
    "x...",
    "x...",
    "x...",
    "x...",
    "x...",
    "x...",
    "x...",
    "x...",
    "x...",
    "x...",
    "x...",
    "x...",
    "x...",
    "x...",
    "x...",
    "x...",
    "x...",
    "x...",
    "x...",
    "x...",
    "x...",
    "x...",
    "x...",
    "x...",
    "x..."};
